# xmcd CD database file
#
# Track frame offsets:
#	150
#	15672
#	30225
#	43405
#	63847
#	84380
#	108417
#	146507
#	168080
#	181527
#	198155
#
# Disc length: 2817 seconds
#
# Revision: 0
# Processed by: cddbd v1.5PL3 Copyright (c) Steve Scherf et al.
# Submitted via: CDex 1.51
#
DISCID=7d0aff0b
DTITLE=Big Daddy and Red Hot Java - The 24th Hour
DYEAR=1998
DGENRE=Blues
TTITLE0=New Cadillac
TTITLE1=Married To Mizery
TTITLE2=Dimples
TTITLE3=Stranger Blues
TTITLE4=Red Hot Java
TTITLE5=Slither and Burn
TTITLE6=Long Way Home
TTITLE7=Southern Belle From Hell
TTITLE8=No Glove No Love
TTITLE9=Dirty Old Town
TTITLE10=Wes' Whiplash
EXTD=YEAR: 1998
EXTT0=
EXTT1=
EXTT2=
EXTT3=
EXTT4=
EXTT5=
EXTT6=
EXTT7=
EXTT8=
EXTT9=
EXTT10=
PLAYORDER=
